<svg xmlns="http://www.w3.org/2000/svg" width="96" height="96" viewBox="0 0 96 96">
  <rect x="4" y="4" width="88" height="88" rx="12" fill="none" stroke="#7EC8E3" stroke-width="5"/>
  <polygon points="8,8 20,8 8,20" fill="#7EC8E3"/>
  <polygon points="88,8 76,8 88,20" fill="#7EC8E3"/>
  <polygon points="8,88 20,88 8,76" fill="#7EC8E3"/>
  <polygon points="88,88 76,88 88,76" fill="#7EC8E3"/>
  <path id="tail" d="M74 74 q18 4 12 -18" fill="none" stroke="#8A6B52" stroke-width="7"/>
  <ellipse cx="48" cy="66" rx="24" ry="20" fill="#EAD9C0"/>
  <g id="head">
    <circle cx="48" cy="40" r="22" fill="#EAD9C0"/>
    <polygon points="30,24 34,8 44,22" fill="#8A6B52"/>
    <polygon points="66,24 62,8 52,22" fill="#8A6B52"/>
    <ellipse cx="48" cy="48" rx="9" ry="7" fill="#8A6B52"/>
    <ellipse cx="40" cy="40" rx="5" ry="4" fill="#3B7CC0"/>
    <ellipse cx="56" cy="40" rx="5" ry="4" fill="#3B7CC0"/>
  </g>
</svg>
